<svg width="404" height="317.5" xmlns="http://www.w3.org/2000/svg" xmlns:svg="http://www.w3.org/2000/svg">
 <g class="layer">
  <title>Layer 1</title>
  <path d="m305.5,31.5q2.5,0 9,8l6.5,8l8,2.5q8,2.5 14.5,8q6.5,5.5 17.25,18.25q10.75,12.75 13.25,17.25q2.5,4.5 2.75,11l0.25,6.5l-4.5,1.75q-4.5,1.75 -6.5,3.25l-2,1.5l-5.5,-1.5q-5.5,-1.5 -15.5,-4q-10,-2.5 -11.5,-1.5l-1.5,1l-1.25,1.75q-1.25,1.75 -4.25,23.75q-3,22 -8.25,35.25q-5.25,13.25 -7.5,17q-2.25,3.75 -5.25,8.25q-3,4.5 -6.75,8.75q-3.75,4.25 -8.75,7.25q-5,3 -8.75,5.75l-3.75,2.75l-1,3q-1,3 -2,21l-1,18l3,4.5q3,4.5 4.5,7q1.5,2.5 1.75,4l0.25,1.5l-7,-0.25l-7,-0.25l-5,-4.75l-5,-4.75l-0.5,-21q-0.5,-21 -3.5,-20.75l-3,0.25l-1.75,2.75q-1.75,2.75 -4.25,14.75q-2.5,12 -1,20q1.5,8 3,12l1.5,4l-0.25,0.25q-0.25,0.25 -7.75,-0.25l-7.5,-0.5l-0.75,-2.25q-0.75,-2.25 -2.75,-6.75l-2,-4.5l1.5,-12.5q1.5,-12.5 2,-19l0.5,-6.5l-5.75,-7l-5.75,-7l-27.5,0.25q-27.5,0.25 -45,-2.75q-17.5,-3 -25.5,-3.5q-8,-0.5 -12,2q-4,2.5 -4.25,2.75l-0.25,0.25l-1,2.5q-1,2.5 0.5,22.5q1.5,20 3.5,24q2,4 4.25,7.75l2.25,3.75l-0.5,0.5q-0.5,0.5 -8.25,0.25q-7.75,-0.25 -9.5,-4q-1.75,-3.75 -2.75,-4l-1,-0.25l-3.25,-17.5q-3.25,-17.5 -4.25,-20.5l-1,-3l-3.25,1.25q-3.25,1.25 -6.5,4q-3.25,2.75 -4.75,13.75q-1.5,11 0,19.5q1.5,8.5 3.25,10q1.75,1.5 1.75,3.5l0,2l-8.5,-0.5l-8.5,-0.5l-1.25,-4q-1.25,-4 -0.75,-30l0.5,-26l-4.5,-10q-4.5,-10 -5,-12.5q-0.5,-2.5 -2.5,-26q-2,-23.5 -4,-29q-2,-5.5 -2.5,-12.5q-0.5,-7 2.75,-15.75q3.25,-8.75 8.5,-16q5.25,-7.25 7.25,-9.25q2,-2 7.75,-5.75q5.75,-3.75 14.25,-7.25q8.5,-3.5 21.5,-4q13,-0.5 85.5,2.5l72.5,3l10.5,-8.5q10.5,-8.5 18.75,-14.25q8.25,-5.75 12.25,-8.25l4,-2.5l0.25,-6.75l0.25,-6.75l2.5,0z" fill="#9829d9" fill-rule="evenodd" id="path2" stroke="#000000" stroke-width="0px"/>
 </g>
</svg>